<svg id="vuesax_bulk_setting-2" data-name="vuesax/bulk/setting-2" xmlns="http://www.w3.org/2000/svg" width="80" height="80" viewBox="0 0 80 80">
  <g id="setting-2">
    <path id="Vector" d="M0,34.4V28.53A6.352,6.352,0,0,1,6.333,22.2c6.033,0,8.5-4.267,5.467-9.5a6.33,6.33,0,0,1,2.333-8.633L19.9.763a5.563,5.563,0,0,1,7.6,2l.367.633c3,5.233,7.933,5.233,10.967,0l.367-.633a5.563,5.563,0,0,1,7.6-2l5.767,3.3A6.33,6.33,0,0,1,54.9,12.7c-3.033,5.233-.567,9.5,5.467,9.5A6.352,6.352,0,0,1,66.7,28.53V34.4a6.352,6.352,0,0,1-6.333,6.333c-6.033,0-8.5,4.267-5.467,9.5a6.322,6.322,0,0,1-2.333,8.633l-5.767,3.3a5.563,5.563,0,0,1-7.6-2l-.367-.633c-3-5.233-7.933-5.233-10.967,0l-.367.633a5.563,5.563,0,0,1-7.6,2l-5.767-3.3A6.33,6.33,0,0,1,11.8,50.23c3.033-5.233.567-9.5-5.467-9.5A6.352,6.352,0,0,1,0,34.4Z" transform="translate(6.667 8.537)" fill="#f72358" opacity="0.24"/>
    <path id="Vector-2" data-name="Vector" d="M21.667,10.833A10.833,10.833,0,1,1,10.833,0,10.833,10.833,0,0,1,21.667,10.833Z" transform="translate(29.167 29.167)" fill="#f72358"/>
    <path id="Vector-3" data-name="Vector" d="M0,0H80V80H0Z" fill="none" opacity="0"/>
  </g>
</svg>
