<svg xmlns="http://www.w3.org/2000/svg" width="137.148" height="32.139" viewBox="0 0 137.148 32.139">
  <g id="Group" transform="translate(-1120.221)">
    <path id="Vector" d="M.3,24.327A.663.663,0,0,1,0,23.81V8.327A.663.663,0,0,1,.3,7.81L13.88.071a.664.664,0,0,1,.6,0l13.58,7.74a.662.662,0,0,1,.3.517V23.811a.664.664,0,0,1-.3.517l-13.58,7.739a.664.664,0,0,1-.6,0ZM41.114,9.868v6.28H43.8c1.949,0,2.815-.794,2.815-2.093V11.962c0-1.3-.866-2.093-2.815-2.093Zm0,8.277v5.606c0,.337-.087.481-.39.481H39.4c-.282,0-.39-.144-.39-.481V8.353c0-.337.108-.481.39-.481h4.4c3.725,0,4.916,1.732,4.916,3.705V14.44c0,1.973-1.191,3.705-4.916,3.705ZM53.6,9.868v5.895h2.685c1.949,0,2.815-.77,2.815-2.093V11.962c0-1.3-.866-2.093-2.815-2.093Zm0,7.892v5.991c0,.337-.087.481-.39.481H51.891c-.282,0-.39-.144-.39-.481V8.353c0-.337.108-.481.39-.481h4.4c3.725,0,4.916,1.732,4.916,3.705v2.5a3.3,3.3,0,0,1-2.534,3.369l2.6,6.3c.108.289-.087.481-.39.481h-1.3c-.3,0-.346-.192-.476-.481L56.656,17.76Zm18.986-5.991c0-1.3-.914-2.093-2.971-2.093-2.034,0-2.949.794-2.949,2.093v8.566c0,1.3.914,2.093,2.949,2.093,2.057,0,2.971-.794,2.971-2.093Zm-8.16-.385c0-1.973,1.28-3.705,5.189-3.705,3.931,0,5.212,1.732,5.212,3.705V20.72c0,1.973-1.28,3.705-5.212,3.705-3.909,0-5.189-1.732-5.189-3.705ZM86.9,7.871c.3,0,.434.12.434.457V9.411c0,.337-.137.457-.434.457H83.24V23.752c0,.337-.114.481-.412.481H81.411c-.3,0-.411-.144-.411-.481V9.868H77.343c-.32,0-.434-.12-.434-.457V8.329c0-.337.114-.457.434-.457Zm10.652,3.9c0-1.3-.914-2.093-2.971-2.093-2.034,0-2.949.794-2.949,2.093v8.566c0,1.3.914,2.093,2.949,2.093,2.057,0,2.971-.794,2.971-2.093Zm-8.16-.385c0-1.973,1.28-3.705,5.189-3.705,3.931,0,5.211,1.732,5.211,3.705V20.72c0,1.973-1.28,3.705-5.211,3.705-3.909,0-5.189-1.732-5.189-3.705ZM113.02,23.776c0,.313-.087.457-.39.457h-1.191a.384.384,0,0,1-.39-.217L105.96,14.1a15.278,15.278,0,0,1-.78-1.733v11.4c0,.313-.108.457-.39.457h-1.213c-.282,0-.39-.144-.39-.457V8.329c0-.313.108-.457.39-.457h1.213a.36.36,0,0,1,.346.192l5.219,10.13c.3.577.671,1.54.671,1.54V8.329c0-.313.13-.457.411-.457h1.191c.3,0,.39.145.39.457Zm3.724.457c-.281,0-.39-.144-.39-.481V8.353c0-.337.108-.481.39-.481h7.407c.282,0,.411.12.411.457V9.411c0,.337-.13.457-.411.457h-5.7v4.86h5.306c.3,0,.433.12.433.457v1.035c0,.313-.13.457-.433.457h-5.306v5.558h5.934c.282,0,.411.1.411.433v1.107c0,.337-.13.457-.411.457ZM136.736,7.871c.282,0,.412.12.412.457V9.411c0,.337-.13.457-.412.457h-3.465V23.752c0,.337-.108.481-.39.481h-1.343c-.282,0-.39-.144-.39-.481V9.868h-3.465c-.3,0-.412-.12-.412-.457V8.329c0-.337.108-.457.412-.457Z" transform="translate(1120.221)" fill="#e15b29"/>
  </g>
</svg>
