<svg xmlns="http://www.w3.org/2000/svg" width="137.148" height="21.361" viewBox="0 0 137.148 21.361">
  <g id="Group" transform="translate(0 -5.389)">
    <g id="Group-2" data-name="Group">
      <path id="Vector" d="M12.034,5.56V0H5.979A4.677,4.677,0,0,0,1.963,2.276L0,5.56Z" transform="translate(7.238 21.189)" fill="#63d2f9"/>
      <path id="Vector-2" data-name="Vector" d="M0,0V5.56H15.949L19.272,0Z" transform="translate(0 5.389)" fill="#4e5ee4"/>
      <path id="Vector-3" data-name="Vector" d="M7.615,2.488,0,15.159H6.488L15.595,0H12.012A5.125,5.125,0,0,0,7.615,2.488Z" transform="translate(0.018 11.591)" fill="#63b0f9"/>
    </g>
    <path id="Vector-4" data-name="Vector" d="M5.663,11.674A5.457,5.457,0,0,1,0,6.12,5.488,5.488,0,0,1,5.679.566,5.506,5.506,0,0,1,11.357,6.12,5.5,5.5,0,0,1,5.663,11.674Zm.015-1.943A3.458,3.458,0,0,0,9.218,6.12a3.476,3.476,0,0,0-3.54-3.611A3.479,3.479,0,0,0,2.124,6.12,3.462,3.462,0,0,0,5.679,9.731Zm7.863,5.263V3.427h1.97V4.452h.108a2.826,2.826,0,0,1,2.432-1.224c2.262,0,3.817,1.683,3.817,4.192s-1.539,4.253-3.755,4.253a2.792,2.792,0,0,1-2.462-1.239h-.108v4.559Zm4.124-5.125a2.2,2.2,0,0,0,2.17-2.417,2.174,2.174,0,0,0-2.185-2.417A2.2,2.2,0,0,0,15.5,7.451,2.18,2.18,0,0,0,17.666,9.868Zm9.926,1.805A3.99,3.99,0,0,1,23.514,7.5a4,4,0,0,1,4.078-4.269,3.9,3.9,0,0,1,4.017,4.177v.627H25.453a2.063,2.063,0,0,0,2.2,2.05A2.084,2.084,0,0,0,29.67,8.966h1.862A3.72,3.72,0,0,1,27.592,11.674ZM25.484,6.625H29.7a1.968,1.968,0,0,0-2.108-1.805A2.076,2.076,0,0,0,25.484,6.625Zm8.279,4.85V3.427h1.908v.979h.108a2.537,2.537,0,0,1,2.278-1.178A2.8,2.8,0,0,1,40.98,6.212v5.263h-2V6.732a1.515,1.515,0,0,0-1.554-1.637A1.671,1.671,0,0,0,35.763,6.87v4.605Zm9.2,0V9.654l5.6-7.023V2.524h-5.4V.765h7.956V2.57l-5.6,7.023v.122h5.633v1.759Zm13.6.2A3.99,3.99,0,0,1,52.49,7.5a4,4,0,0,1,4.078-4.269,3.9,3.9,0,0,1,4.017,4.177v.627H54.429a2.063,2.063,0,0,0,2.2,2.05,2.084,2.084,0,0,0,2.016-1.117h1.862A3.72,3.72,0,0,1,56.569,11.674ZM54.46,6.625h4.217a1.968,1.968,0,0,0-2.108-1.805A2.076,2.076,0,0,0,54.46,6.625Zm8.279,8.369V3.427h1.97V4.452h.108a2.826,2.826,0,0,1,2.432-1.224c2.262,0,3.817,1.683,3.817,4.192s-1.539,4.253-3.755,4.253a2.792,2.792,0,0,1-2.462-1.239H64.74v4.559Zm4.124-5.125a2.2,2.2,0,0,0,2.17-2.417,2.174,2.174,0,0,0-2.185-2.417,2.2,2.2,0,0,0-2.155,2.417A2.18,2.18,0,0,0,66.863,9.868Zm6.355,5.125V3.427h1.97V4.452H75.3a2.826,2.826,0,0,1,2.432-1.224c2.262,0,3.817,1.683,3.817,4.192s-1.539,4.253-3.755,4.253a2.792,2.792,0,0,1-2.462-1.239h-.108v4.559Zm4.124-5.125a2.2,2.2,0,0,0,2.17-2.417,2.174,2.174,0,0,0-2.185-2.417,2.2,2.2,0,0,0-2.155,2.417A2.18,2.18,0,0,0,77.343,9.868Zm9.926,1.805A3.99,3.99,0,0,1,83.19,7.5a4,4,0,0,1,4.078-4.269,3.9,3.9,0,0,1,4.017,4.177v.627H85.129a2.063,2.063,0,0,0,2.2,2.05,2.084,2.084,0,0,0,2.016-1.117h1.862A3.72,3.72,0,0,1,87.269,11.674ZM85.16,6.625h4.217a1.968,1.968,0,0,0-2.108-1.805A2.076,2.076,0,0,0,85.16,6.625Zm10.249,4.85a2.043,2.043,0,0,1-2.216-2.264V0h2V9.027c0,.459.231.7.646.7h.323v1.744Zm3.677-9.119a1.129,1.129,0,0,1-1.231-1.163,1.234,1.234,0,0,1,2.462,0A1.129,1.129,0,0,1,99.087,2.356Zm-1,9.119V3.427h2v8.048Zm4.432,0V3.427h1.908v.979h.108a2.537,2.537,0,0,1,2.278-1.178,2.8,2.8,0,0,1,2.924,2.983v5.263h-2V6.732a1.515,1.515,0,0,0-1.554-1.637,1.671,1.671,0,0,0-1.662,1.775v4.605Z" transform="translate(27.413 9.739)" fill="#282846"/>
  </g>
</svg>
