<svg id="Page_1" data-name="Page 1" xmlns="http://www.w3.org/2000/svg" width="22" height="22" viewBox="0 0 22 22">
  <path id="Fill_1" data-name="Fill 1" d="M0,22H22V0H0Z" fill="none"/>
  <g id="Group_10" data-name="Group 10">
    <path id="Fill_2" data-name="Fill 2" d="M13.063,21.313a3.422,3.422,0,0,1-2.418-1,.016.016,0,0,0-.007-.005l-.005,0L1.695,11.369l0-.006,0-.007a3.445,3.445,0,1,1,2.911.971L9.672,17.4a3.431,3.431,0,1,1,3.39,3.91Zm0-5.5a2.062,2.062,0,1,0,2.063,2.062A2.065,2.065,0,0,0,13.063,15.813ZM4.125,6.875A2.062,2.062,0,1,0,6.188,8.938,2.065,2.065,0,0,0,4.125,6.875Z" fill="#181433"/>
    <path id="Fill_4" data-name="Fill 4" d="M.688,0a.688.688,0,0,0,0,1.375,8.948,8.948,0,0,1,8.938,8.938.688.688,0,0,0,1.375,0A10.324,10.324,0,0,0,.688,0Z" transform="translate(10.313 0.688)" fill="#181433"/>
    <path id="Fill_6" data-name="Fill 6" d="M.688,0a.688.688,0,0,0,0,1.375,5.506,5.506,0,0,1,5.5,5.5.688.688,0,0,0,1.375,0A6.883,6.883,0,0,0,.688,0Z" transform="translate(10.313 4.125)" fill="#181433"/>
    <path id="Fill_8" data-name="Fill 8" d="M2.75,3.438a.688.688,0,1,0,1.375,0A3.441,3.441,0,0,0,.688,0a.688.688,0,0,0,0,1.375A2.065,2.065,0,0,1,2.75,3.438Z" transform="translate(10.313 7.563)" fill="#181433"/>
  </g>
</svg>
