<svg xmlns="http://www.w3.org/2000/svg" width="145" height="29" viewBox="0 0 145 29">
  <g id="Group_192" data-name="Group 192" transform="translate(-751 -5294)">
    <path id="Star_6" data-name="Star 6" d="M13.552,2.82a1,1,0,0,1,1.9,0l2.455,7.3a1,1,0,0,0,.921.681l7.46.2a1,1,0,0,1,.6,1.778l-6,4.838a1,1,0,0,0-.335,1.05l2.135,7.561a1,1,0,0,1-1.549,1.082L15.086,22.94a1,1,0,0,0-1.172,0L7.869,27.314A1,1,0,0,1,6.32,26.232l2.135-7.562a1,1,0,0,0-.335-1.05l-6-4.838A1,1,0,0,1,2.717,11l7.46-.2a1,1,0,0,0,.921-.681Z" transform="translate(751 5294)" fill="#226cff"/>
    <path id="Star_7" data-name="Star 7" d="M13.552,2.82a1,1,0,0,1,1.9,0l2.455,7.3a1,1,0,0,0,.921.681l7.46.2a1,1,0,0,1,.6,1.778l-6,4.838a1,1,0,0,0-.335,1.05l2.135,7.561a1,1,0,0,1-1.549,1.082L15.086,22.94a1,1,0,0,0-1.172,0L7.869,27.314A1,1,0,0,1,6.32,26.232l2.135-7.562a1,1,0,0,0-.335-1.05l-6-4.838A1,1,0,0,1,2.717,11l7.46-.2a1,1,0,0,0,.921-.681Z" transform="translate(780 5294)" fill="#226cff"/>
    <path id="Star_8" data-name="Star 8" d="M13.552,2.82a1,1,0,0,1,1.9,0l2.455,7.3a1,1,0,0,0,.921.681l7.46.2a1,1,0,0,1,.6,1.778l-6,4.838a1,1,0,0,0-.335,1.05l2.135,7.561a1,1,0,0,1-1.549,1.082L15.086,22.94a1,1,0,0,0-1.172,0L7.869,27.314A1,1,0,0,1,6.32,26.232l2.135-7.562a1,1,0,0,0-.335-1.05l-6-4.838A1,1,0,0,1,2.717,11l7.46-.2a1,1,0,0,0,.921-.681Z" transform="translate(809 5294)" fill="#226cff"/>
    <path id="Star_9" data-name="Star 9" d="M13.552,2.82a1,1,0,0,1,1.9,0l2.455,7.3a1,1,0,0,0,.921.681l7.46.2a1,1,0,0,1,.6,1.778l-6,4.838a1,1,0,0,0-.335,1.05l2.135,7.561a1,1,0,0,1-1.549,1.082L15.086,22.94a1,1,0,0,0-1.172,0L7.869,27.314A1,1,0,0,1,6.32,26.232l2.135-7.562a1,1,0,0,0-.335-1.05l-6-4.838A1,1,0,0,1,2.717,11l7.46-.2a1,1,0,0,0,.921-.681Z" transform="translate(838 5294)" fill="#226cff"/>
    <path id="Star_10" data-name="Star 10" d="M13.552,2.82a1,1,0,0,1,1.9,0l2.455,7.3a1,1,0,0,0,.921.681l7.46.2a1,1,0,0,1,.6,1.778l-6,4.838a1,1,0,0,0-.335,1.05l2.135,7.561a1,1,0,0,1-1.549,1.082L15.086,22.94a1,1,0,0,0-1.172,0L7.869,27.314A1,1,0,0,1,6.32,26.232l2.135-7.562a1,1,0,0,0-.335-1.05l-6-4.838A1,1,0,0,1,2.717,11l7.46-.2a1,1,0,0,0,.921-.681Z" transform="translate(867 5294)" fill="#226cff"/>
  </g>
</svg>
